<?xml version="1.0" encoding="UTF-8"?><svg xmlns="http://www.w3.org/2000/svg" viewBox="0 0 1441 665" fill-rule="evenodd" clip-rule="evenodd"><path fill="currentColor" d="M 1045.22 436.349 L 1059.44 568.329 L 998.946 549.972 L 971.426 465.637 L 1045.22 436.349 Z M 1043.14 417.056 L 1031.59 309.833 L 942.371 339.875 L 1035.81 419.966 L 1043.14 417.056 Z M 1018.77 190.819 L 1029.54 290.793 L 895.752 335.842 L 878.705 231.005 L 1018.77 190.819 Z M 808.505 365.22 L 886.147 339.076 L 869.026 233.782 L 746.099 269.051 L 808.505 365.22 Z M 876.739 361.975 L 819.013 381.413 L 852.513 433.038 L 897.18 412.474 L 876.739 361.975 Z M 866.388 488.771 L 843.532 453.549 L 778.609 554.728 L 823.661 575.158 L 866.388 488.771 Z M 793.16 513.535 L 837.558 444.343 L 794.09 377.357 L 729.882 464.68 L 793.16 513.535 Z M 723.956 472.739 L 787.739 521.983 L 769.405 550.555 L 692.411 515.641 L 723.956 472.739 Z M 708.772 543.591 L 760.996 567.273 C 752.321 593.546 739.18 633.292 732.497 653.343 L 675.67 632.74 L 708.772 543.591 Z M 764.65 665 L 741.9 656.752 C 748.547 636.818 761.501 597.637 770.155 571.427 L 815.367 591.929 L 779.226 665 H 800.087 L 877.089 509.313 L 949.096 602.258 L 893.848 665 H 918.764 L 960.757 617.31 L 997.704 665 H 1021.36 L 968.393 596.634 L 996.85 559.786 L 1060.6 579.132 L 1069.85 665 H 1105.84 L 1102.02 629.579 L 1199.4 612.472 L 1206.49 665 H 1225.36 L 1204.38 509.567 L 1242.73 504.098 L 1267.97 662.628 L 1263.68 665 H 1337.53 L 1416.65 621.186 L 1426.92 665 H 1441 V 643.13 L 1433.65 611.773 L 1441 607.701 V 566.806 L 1425.16 575.577 L 1414.52 530.183 L 1441 519.73 V 508.979 L 1412.21 520.343 L 1401.22 473.472 L 1414 423.049 L 1441 424.977 V 414.951 L 1416.5 413.202 L 1434.19 343.406 L 1441 346.202 V 325.986 L 1417.98 316.529 L 1441 259.173 V 240.262 L 1399.77 221.612 L 1424.18 142.905 L 1441 159.592 V 133.251 L 1390.79 83.4311 L 1441 76.2697 V 57.3814 L 1426.38 59.4661 L 1396.1 3.40977 L 1401.41 0 H 1382.91 L 1336.65 29.714 L 1306.7 0 H 1280.15 L 1348.6 67.9154 L 1279.71 88.0904 L 1264.68 0 H 1254.54 L 1270.05 90.9199 L 1215.82 106.801 L 1207.71 0 H 1188.95 L 1191.22 29.8037 C 1189.3 30.1843 1187.08 30.6199 1184.62 31.1024 C 1176 32.7895 1164.34 35.0446 1151.52 37.5152 C 1128.38 41.9719 1101.43 47.1272 1081.62 50.9078 C 1082.36 32.739 1083.05 14.9589 1083.61 0 H 1073.61 C 1072.98 16.6004 1072.2 36.6318 1071.37 56.7946 C 1070.37 81.2325 1069.29 105.851 1068.34 124.785 C 1067.86 134.255 1067.41 142.282 1067.02 148.145 C 1066.96 148.949 1066.91 149.71 1066.86 150.426 L 1050.9 155.098 L 1034.19 0 H 960.25 L 825.759 16.362 L 843.047 0 H 828.499 L 816.446 11.4072 L 815.58 0 H 796.827 L 798.058 16.2047 L 748.43 0 H 688.188 L 728.435 13.1418 L 717.758 55.8487 L 650.727 37.7705 L 660.787 0 H 641.436 L 629.681 44.1338 L 522.597 0 H 496.353 L 554.662 24.0312 L 536.531 83.8925 L 461.527 55.4221 L 481.22 0 H 461.376 L 444.041 48.7847 L 411.471 36.4215 L 426.256 0 H 415.463 L 402.119 32.8718 L 315.52 0 H 276.444 L 257.116 45.33 L 144.816 20.7242 L 148.151 0 H 138.023 L 135.033 18.5805 L 113.992 13.9703 L 114.323 0 H 78.5365 L 78.2341 12.7773 L 48.9365 18.3438 L 47.9031 0 H 37.8872 L 39.0267 20.2266 L 0 27.6416 V 46.6752 L 12.9787 44.2093 L 2.48283 202.522 L 0 201.724 V 221.364 L 72.7439 244.723 L 71.5237 296.274 L 7.07212 333.823 L 0 327.703 V 340.928 L 1.49029 342.218 L 0 345.11 V 366.947 L 9.27066 348.951 L 52.1812 386.085 C 48.1511 391.429 44.8147 397.326 42.3061 403.641 L 0 387.374 V 407.408 L 37.6085 421.869 C 37.207 425.023 37 428.237 37 431.5 C 37 442.2 39.226 452.381 43.2402 461.603 L 0 483.62 V 529.276 L 49.655 557.498 L 37.2236 665 H 47.2902 L 59.1008 562.867 L 91.8601 581.487 L 80.1804 665 H 99.0614 L 103.47 633.476 L 142.381 641.521 L 137.617 665 H 147.821 L 152.174 643.545 L 238.145 661.319 L 240.222 665 H 251.704 L 251.143 664.006 L 255.952 665 H 348.312 L 267.273 648.246 L 288.284 530.346 L 382.803 564.614 L 364.913 665 H 383.907 L 400.644 571.082 L 474.295 597.785 L 419.227 665 H 432.155 L 439.905 655.541 L 455.346 665 H 470.53 L 471.61 663.236 L 446.302 647.732 L 484.262 601.399 L 579.694 635.998 L 574.525 665 H 593.519 L 597.535 642.466 L 659.687 665 H 764.65 Z M 979.593 385.542 L 858.013 441.514 L 883.307 480.492 L 1025.31 424.134 L 979.143 384.565 L 979.593 385.542 Z M 931.339 343.59 L 971.686 378.173 L 906.273 408.288 L 886.233 358.778 L 931.339 343.59 Z M 891.486 497.364 L 923.431 538.598 L 973.582 504.479 L 962.113 469.333 L 891.486 497.364 Z M 962.065 588.467 L 929.567 546.519 L 976.812 514.377 L 989.427 553.037 L 962.065 588.467 Z M 699.642 539.451 L 666.269 629.331 L 580.921 598.388 L 610.434 498.999 L 699.642 539.451 Z M 583.793 553.587 L 571.503 594.974 L 518.001 575.576 L 526.85 536.247 L 583.793 553.587 Z M 488.243 564.172 C 488.12 563.92 487.997 563.666 487.873 563.41 C 482.969 553.3 476.851 540.072 470.359 525.738 C 458.216 498.923 444.717 468.13 435.31 446.379 L 314.445 501.776 L 488.607 564.919 C 488.486 564.672 488.365 564.423 488.243 564.172 Z M 341.569 478.344 L 301.045 496.917 L 184.393 454.625 C 186.735 447.337 188 439.566 188 431.5 C 188 430.726 187.988 429.955 187.965 429.186 L 316.35 392.351 L 341.569 478.344 Z M 270.443 523.877 L 165.083 485.678 C 162.004 488.667 158.672 491.395 155.121 493.828 L 238.946 642.39 L 248.955 644.459 L 270.443 523.877 Z M 531.098 101.831 L 450.178 71.115 L 445.78 121.491 L 515.061 154.781 L 531.098 101.831 Z M 440.462 67.4269 L 403.191 53.2795 C 393.767 68.711 381.918 88.0792 370.111 107.323 L 435.99 118.651 L 440.462 67.4269 Z M 393.679 49.6688 C 383.377 66.5352 370.372 87.7876 357.727 108.384 C 346.294 127.004 335.159 145.081 326.58 158.896 C 323.49 163.871 320.735 168.289 318.419 171.977 L 284.688 71.8775 L 308.022 17.1546 L 393.679 49.6688 Z M 324.373 181.284 C 323.714 182.325 323.098 183.295 322.531 184.18 L 337.156 227.581 L 483.676 258.402 L 512.127 164.466 L 438.962 129.309 L 364.477 116.501 C 353.667 134.101 343.223 151.051 335.075 164.171 C 330.78 171.088 327.117 176.949 324.373 181.284 Z M 480.767 268.009 L 340.862 238.579 L 374.513 338.444 L 467.515 311.761 L 480.767 268.009 Z M 244.982 375.608 L 356.521 343.606 L 342.803 302.896 L 232.562 338.219 L 244.982 375.608 Z M 281.842 311.928 L 339.609 293.419 L 307.911 199.35 L 254.622 234.523 L 281.842 311.928 Z M 273.667 97.7267 L 304.608 189.549 L 251.203 224.798 L 236.867 184.032 L 273.667 97.7267 Z M 540.469 105.388 L 606.673 130.518 L 584.269 214.631 L 513.74 193.641 L 540.469 105.388 Z M 611.511 112.354 L 545.902 87.4497 L 563.951 27.8597 L 627.085 53.8799 L 611.511 112.354 Z M 727.415 58.4531 L 737.965 16.2535 L 799.59 36.3757 L 802.812 78.7873 L 727.415 58.4531 Z M 999.721 14.0349 L 953.626 19.6429 L 972.15 166.975 L 1014.88 154.716 L 999.721 14.0349 Z M 943.699 20.8506 L 818.322 36.1037 L 822.233 87.5913 L 949.949 70.5626 L 943.699 20.8506 Z M 73.2053 225.232 L 77.7815 31.8968 L 23.1285 42.2808 L 12.2959 205.673 L 73.2053 225.232 Z M 113.541 33.0142 L 109.655 197.21 L 147.105 202.203 L 176.551 46.8202 L 113.541 33.0142 Z M 186.323 48.9614 L 169.559 137.423 L 208.409 159.559 L 249.651 62.8371 L 186.323 48.9614 Z M 231.058 197.656 L 272.315 314.981 L 229.409 328.729 L 205.657 257.228 L 231.058 197.656 Z M 167.591 147.811 L 204.461 168.819 L 180.983 223.881 L 156.445 206.624 L 167.591 147.811 Z M 109.417 207.266 L 107.381 293.247 L 147.729 301.871 L 176.973 233.286 L 147.125 212.294 L 109.417 207.266 Z M 199.734 271.118 L 157.273 370.702 C 165.924 377.084 173.165 385.268 178.44 394.7 L 235.362 378.368 L 199.734 271.118 Z M 143.733 311.243 L 107.141 303.422 L 105.889 356.285 C 108.068 356.096 110.273 356 112.5 356 C 116.501 356 120.429 356.311 124.261 356.911 L 143.733 311.243 Z M 15.0649 340.74 L 71.2459 308.009 L 69.7969 369.228 C 65.81 371.967 62.0993 375.08 58.7152 378.515 L 15.0649 340.74 Z M 93.3503 570.831 L 5.56221 520.935 L 65.3666 490.484 C 75.7956 498.829 88.486 504.465 102.372 506.326 L 93.3503 570.831 Z M 146.513 498.923 L 225.948 639.703 L 106.066 614.918 L 121.228 506.501 C 130.234 505.464 138.758 502.843 146.513 498.923 Z M 350.755 474.133 L 482.65 413.682 L 466.645 349.23 L 325.962 389.593 L 350.755 474.133 Z M 510.841 203.212 L 581.695 224.298 L 565.919 283.528 L 478.958 308.478 L 510.841 203.212 Z M 555.501 323.736 L 476.263 346.47 L 492.967 413.736 L 528.446 443.974 L 555.501 323.736 Z M 487.685 422.374 L 525.965 454.999 L 500.778 566.939 C 499.6 564.622 498.291 561.976 496.87 559.046 C 492.023 549.054 485.948 535.919 479.468 521.612 C 467.319 494.783 453.798 463.939 444.403 442.212 L 487.685 422.374 Z M 788.271 368.39 L 769.404 394.049 L 738.641 343.509 L 760.067 324.927 L 788.271 368.39 Z M 754.571 316.457 L 727.307 274.443 L 701.166 281.943 L 733.368 334.845 L 754.571 316.457 Z M 691.2 284.802 L 725.706 341.49 L 666.278 393.03 L 620.669 305.038 L 691.2 284.802 Z M 610.864 307.852 L 635.242 354.884 C 614.586 361.214 580.96 371.404 562.778 376.574 L 575.99 317.857 L 610.864 307.852 Z M 659.086 400.885 L 639.92 363.909 C 617.757 370.708 577.502 382.919 560.286 387.652 L 546.387 449.423 L 666.441 503.864 L 659.086 400.885 Z M 676.802 508.563 L 669.308 403.639 L 730.979 350.154 L 763 402.759 L 683.102 511.419 L 676.802 508.563 Z M 601.24 494.829 L 542.194 468.054 L 529.052 526.464 L 586.64 544 L 601.24 494.829 Z M 612.17 182.53 L 586.871 277.516 L 670.195 253.61 L 612.17 182.53 Z M 615.346 170.607 L 648.153 47.4337 L 752.775 75.6499 L 752.502 75.6586 C 753.335 101.904 754.535 141.544 755.426 175.17 C 755.872 191.985 756.24 207.284 756.447 218.649 C 756.518 222.54 756.57 225.961 756.599 228.819 L 680.654 250.609 L 615.346 170.607 Z M 766.566 225.959 L 812.98 212.643 L 803.615 89.3612 L 762.591 78.2971 C 763.419 104.511 764.564 142.495 765.423 174.905 C 765.869 191.728 766.238 207.06 766.446 218.467 C 766.495 221.196 766.536 223.705 766.566 225.959 Z M 951.197 80.4847 L 895.832 87.8667 L 861.537 198.711 L 962.422 169.766 L 951.197 80.4847 Z M 1077.08 147.431 C 1077.46 141.638 1077.88 134.06 1078.32 125.289 C 1079.23 107.334 1080.24 84.3004 1081.2 61.1684 C 1101.2 57.3543 1129.36 51.9675 1153.41 47.3347 C 1166.24 44.8636 1177.9 42.6062 1186.54 40.9162 C 1188.52 40.5286 1190.34 40.1706 1191.98 39.8465 L 1197.48 112.173 L 1077.08 147.431 Z M 1343.92 36.9286 L 1374.14 66.9167 L 1415.83 60.9712 L 1387.66 8.82974 L 1343.92 36.9286 Z M 1382.28 214.903 L 1409.21 128.051 L 1363.76 82.9594 L 1331.51 92.4043 L 1295.73 188.836 L 1382.28 214.903 Z M 1319.55 95.9088 L 1242.35 118.517 L 1226.33 167.935 L 1286.13 185.946 L 1319.55 95.9088 Z M 1230.73 121.918 L 1063.49 170.895 L 1197.07 225.773 L 1230.73 121.918 Z M 1206.35 229.584 L 1261.53 252.253 L 1282.65 195.34 L 1223.25 177.45 L 1206.35 229.584 Z M 1270.78 256.055 L 1292.24 198.23 L 1379.31 224.455 L 1358.35 292.033 L 1270.78 256.055 Z M 1396.79 231.237 L 1434.58 248.332 L 1408.73 312.729 L 1375.72 299.167 L 1396.79 231.237 Z M 1398.37 408.606 L 1416.72 336.229 L 1332.68 301.702 L 1309.39 370.713 L 1398.37 408.606 Z M 1323.41 297.894 L 1167.16 233.699 L 1179.96 328.597 L 1300.01 367.23 L 1323.41 297.894 Z M 1160.61 325.034 L 1147.64 228.859 L 1064.99 285.842 L 1069.26 325.451 L 1160.61 325.034 Z M 1070.33 335.446 L 1161.96 335.028 L 1175.89 438.251 L 1082.84 451.543 L 1070.33 335.446 Z M 1063.77 274.535 L 1139.49 222.331 L 1054.38 187.366 L 1063.77 274.535 Z M 1181.44 339.579 L 1296.81 376.706 L 1281.4 422.343 L 1189.05 395.957 L 1181.44 339.579 Z M 1278.2 431.828 L 1190.51 406.774 L 1201.88 491.035 L 1261.06 482.595 L 1278.2 431.828 Z M 1272.15 481.014 L 1330.17 472.738 L 1352.75 400.047 L 1306.18 380.216 L 1272.15 481.014 Z M 1341.13 471.175 L 1384.06 465.052 L 1395.89 418.416 L 1362 403.985 L 1341.13 471.175 Z M 1394.63 527.281 L 1389.27 504.432 L 1375 500.813 L 1379.1 484.649 L 1252.63 502.686 L 1264.71 578.562 L 1394.63 527.281 Z M 1396.94 537.121 L 1266.32 588.677 L 1277.27 657.475 L 1408.16 584.991 L 1396.94 537.121 Z M 1198.06 602.554 L 1188.07 528.539 L 1092.6 542.156 L 1100.95 619.615 L 1198.06 602.554 Z M 831.333 207.377 L 822.992 97.5787 L 884.914 89.3224 L 850.049 202.007 L 831.333 207.377 Z M 1185.57 510.008 L 1177.23 448.161 L 1130.54 454.831 L 1137.84 516.816 L 1185.57 510.008 Z M 1127.93 518.228 L 1120.63 456.246 L 1083.91 461.492 L 1090.6 523.553 L 1127.93 518.228 Z M 155 431.5 C 155 454.972 135.972 474 112.5 474 C 89.0279 474 70 454.972 70 431.5 C 70 408.028 89.0279 389 112.5 389 C 135.972 389 155 408.028 155 431.5 Z"/></svg>
